inDegrees=yes
name=ik_S46_A04_T01
DataType=double
version=3
OpenSimVersion=4.3-2021-08-27-4bc7ad9
endheader
time	pelvis_tilt	pelvis_list	pelvis_rotation	pelvis_tx	pelvis_ty	pelvis_tz	hip_flexion_r	hip_adduction_r	hip_rotation_r	knee_angle_r	knee_angle_r_beta	ankle_angle_r	subtalar_angle_r	mtp_angle_r	hip_flexion_l	hip_adduction_l	hip_rotation_l	knee_angle_l	knee_angle_l_beta	ankle_angle_l	subtalar_angle_l	mtp_angle_l	lumbar_extension	lumbar_bending	lumbar_rotation	arm_flex_r	arm_add_r	arm_rot_r	elbow_flex_r	pro_sup_r	wrist_flex_r	wrist_dev_r	arm_flex_l	arm_add_l	arm_rot_l	elbow_flex_l	pro_sup_l	wrist_flex_l	wrist_dev_l
14.65999999999978	19.44301058599751	9.86963595616613	30.19732134130087	0	0.9399999999999999	0	46.39725085950948	-30.29809175634525	0.8219135643675204	74.47261233492806	1.299792287805837	0	0	0	46.73602956337216	-6.372205862982555	-8.030996862746298	75.27295635965369	1.313760926185962	0	0	0	0	0	0	32.39710394169886	-32.39710394169883	4.445453487801847	77.73932574219226	85.55454676087723	0	0	32.39710394169886	-32.39710394169883	4.445453487801847	77.73932574219226	85.55454676077328	0	0
14.67999999999978	19.78316155281543	10.01812084677181	30.18687541600156	0	0.9399999999999999	0	46.05835182209334	-30.30908130910237	0.844549336858326	74.47303961126508	1.299799745184734	0	0	0	46.43581213066118	-6.398486671182122	-8.102208868852177	75.28000477780667	1.313883944289789	0	0	0	0	0	0	32.39796703945611	-32.39796703945608	4.445528881397449	77.74031849350369	85.55447136728547	0	0	32.39796703945611	-32.39796703945608	4.445528881397449	77.74031849350369	85.55447136718156	0	0
14.69999999999978	20.29580368086813	10.2365724370197	30.18489967228297	0	0.9399999999999999	0	45.50150709410308	-30.30746200265745	0.7833160940155686	74.47411065117366	1.299818438357559	0	0	0	45.95983679894699	-6.401364806230755	-8.088246647909104	75.2947074911857	1.31414055504723	0	0	0	0	0	0	32.39913450447305	-32.39913450447302	4.445630671723658	77.74165878194441	85.55436957696448	0	0	32.39913450447305	-32.39913450447302	4.445630671723658	77.74165878194441	85.55436957686062	0	0
14.71999999999978	20.31031142812662	10.22657048019949	30.19311787605308	0	0.9399999999999999	0	45.4742819345522	-30.28050506176263	0.766431933612297	74.41058313911174	1.298709674106478	0	0	0	46.04245313220108	-6.431119517178225	-8.126540157834192	75.26532864474261	1.31362779744636	0	0	0	0	0	0	32.41408417453373	-32.41408417453371	4.446930698633333	77.75877192734907	85.55306955012094	0	0	32.41408417453373	-32.41408417453371	4.446930698633333	77.75877192734907	85.55306955001734	0	0
14.73999999999977	20.64211916301034	10.33686044664423	30.15793787313428	0	0.9399999999999999	0	45.14161963102021	-30.23812673932273	0.6800079434522129	74.40146027378341	1.298550450069282	0	0	0	45.75998820251401	-6.507371508590781	-8.14353831667959	75.33892275916185	1.314912257053065	0	0	0	0	0	0	32.41534664374022	-32.41534664374019	4.447040787411874	77.76022145497139	85.552959461348	0	0	32.41534664374022	-32.41534664374019	4.447040787411874	77.76022145497139	85.5529594612444	0	0
14.75999999999977	20.66691051813007	10.33445282946495	30.19678977623274	0	0.9399999999999999	0	45.11816231212413	-30.23587356288165	0.6196044717254092	74.39651090644274	1.298464067313297	0	0	0	45.77109926806602	-6.529827251861034	-8.236911577618011	75.33109599522076	1.314775654252517	0	0	0	0	0	0	32.41556249049477	-32.41556249049474	4.44705938640835	77.76046629507128	85.55294086235249	0	0	32.41556249049477	-32.41556249049474	4.44705938640835	77.76046629507128	85.55294086224889	0	0
14.77999999999977	20.7163740286789	10.34099179895061	30.20334482757097	0	0.9399999999999999	0	45.04544450702898	-30.21078512340139	0.5919243484352749	74.34282239803261	1.297527026071055	0	0	0	45.73326999211884	-6.54901857199901	-8.281094017224357	75.27000963841229	1.313709496198161	0	0	0	0	0	0	32.43021083424022	-32.43021083424019	4.448332319109764	77.77722240884033	85.55166792971583	0	0	32.43021083424022	-32.43021083424019	4.448332319109764	77.77722240884033	85.55166792961246	0	0
14.79999999999977	20.72500756389889	10.35460233590792	30.21314838730268	0	0.9399999999999999	0	45.00603017882997	-30.21532442210901	0.6285635127191536	74.30801844604322	1.296919582516135	0	0	0	45.71922787764168	-6.53397134128617	-8.300544138198774	75.24148295144151	1.313211611585835	0	0	0	0	0	0	32.44246309227504	-32.44246309227501	4.449395950028499	77.79122286692302	85.55060429885118	0	0	32.44246309227504	-32.44246309227501	4.449395950028499	77.79122286692302	85.55060429874804	0	0
14.81999999999977	20.63056751175361	10.29961407012001	30.30851961935753	0	0.9399999999999999	0	45.08743160781034	-30.27203884659065	0.5483321805356504	74.28259911791297	1.296475931546617	0	0	0	45.81098641246385	-6.477063764632637	-8.233877729916943	75.21265950247943	1.312708547499666	0	0	0	0	0	0	32.45840241308225	-32.45840241308222	4.450782433462327	77.80947473875946	85.54921781548791	0	0	32.45840241308225	-32.45840241308222	4.450782433462327	77.80947473875946	85.54921781538501	0	0
14.83999999999977	20.54519811982927	10.23818317073523	30.35203086315606	0	0.9399999999999999	0	45.17559636272077	-30.28463203999343	0.560378629618694	74.28699404762386	1.296552637540466	0	0	0	45.91191351855672	-6.455027050742216	-8.195617253646937	75.20020105225258	1.312491106523512	0	0	0	0	0	0	32.47306006412112	-32.47306006412109	4.452055841484857	77.82623719432632	85.54794440753015	0	0	32.47306006412112	-32.47306006412109	4.452055841484857	77.82623719432632	85.54794440742748	0	0
14.85999999999977	20.42374948481159	10.16434793314109	30.41780949222655	0	0.9399999999999999	0	45.28478121686167	-30.2839848400614	0.4740733785414078	74.29409381349228	1.29667655183099	0	0	0	46.06088954392402	-6.405160832059088	-8.16010697291898	75.19568499842411	1.312412286515008	0	0	0	0	0	0	32.49485598975312	-32.49485598975308	4.453960411574743	77.85131342000074	85.54603983753731	0	0	32.49485598975312	-32.49485598975308	4.453960411574743	77.85131342000074	85.54603983743498	0	0
14.87999999999977	20.24412202071254	10.0573990728577	30.46871429162625	0	0.9399999999999999	0	45.45352406646753	-30.29174118385924	0.4198934165863635	74.33037548738361	1.297309786498529	0	0	0	46.25395379003206	-6.376269488951539	-8.135019631858867	75.22951336207356	1.313002702841253	0	0	0	0	0	0	32.4958011510574	-32.49580115105736	4.454041390378983	77.85237922987852	85.54595885873715	0	0	32.4958011510574	-32.49580115105736	4.454041390378983	77.85237922987852	85.54595885863482	0	0
14.89999999999977	20.04548782756466	9.953405089781105	30.54131472246338	0	0.9399999999999999	0	45.66331352989365	-30.32575366736017	0.3879021063183863	74.36989889231971	1.297999600046263	0	0	0	46.44591267516065	-6.29683268899764	-8.114586626869567	75.2476728369205	1.313319645467765	0	0	0	0	0	0	32.49678450846815	-32.49678450846812	4.454125562085228	77.85348704460591	85.54587468703518	0	0	32.49678450846815	-32.49678450846812	4.454125562085228	77.85348704460591	85.54587468693286	0	0
14.91999999999977	19.9219353143808	9.904120729322788	30.57807711873938	0	0.9399999999999999	0	45.76133385466451	-30.30815620251593	0.3760564619607211	74.40091761226395	1.298540978839044	0	0	0	46.53432515140746	-6.227850912766511	-8.117396337598201	75.24828410907617	1.313330314179507	0	0	0	0	0	0	32.51471283178712	-32.51471283178708	4.455682857457287	77.87398634506121	85.54431739174233	0	0	32.51471283178712	-32.51471283178708	4.455682857457287	77.87398634506121	85.54431739164033	0	0
14.93999999999977	19.71157277104204	9.766489121718045	30.64693411652485	0	0.9399999999999999	0	45.95825833724941	-30.2766054564885	0.3206794130138113	74.4378882708605	1.299186238558184	0	0	0	46.75300403449489	-6.175498064942976	-8.067798867565982	75.24989904740919	1.313358500170635	0	0	0	0	0	0	32.51565223262822	-32.51565223262819	4.455763252070271	77.8750444194863	85.54423699713342	0	0	32.51565223262822	-32.51565223262819	4.455763252070271	77.8750444194863	85.54423699703145	0	0
14.95999999999977	19.35718896314782	9.567661929304467	30.77483546486695	0	0.9399999999999999	0	46.31655835493602	-30.30934150962261	0.2959028560554497	74.45552335659418	1.299494028868108	0	0	0	47.13858950155756	-6.093705047304749	-8.013507280829289	75.24860820199233	1.313335970667976	0	0	0	0	0	0	32.51688442661737	-32.51688442661734	4.455868882268776	77.87643465686347	85.54413136694032	0	0	32.51688442661737	-32.51688442661734	4.455868882268776	77.87643465686347	85.54413136683836	0	0
14.97999999999977	19.24840199183368	9.500175397290658	30.81841242380927	0	0.9399999999999999	0	46.374102596432	-30.28228058109147	0.2522248451328346	74.43009914815222	1.299050292721083	0	0	0	47.23297572221396	-6.041438217443218	-8.019914335876031	75.22696342175409	1.312958197986948	0	0	0	0	0	0	32.53539399318181	-32.53539399318178	4.457474130281589	77.89756411918563	85.54252611900915	0	0	32.53539399318181	-32.53539399318178	4.457474130281589	77.89756411918563	85.54252611890746	0	0
14.99999999999977	19.00508130477985	9.358041224690533	30.88050523497338	0	0.9399999999999999	0	46.6151754083225	-30.24536338964639	0.2179149116154424	74.43579095645541	1.299149633516366	0	0	0	47.48041812647986	-5.994196667932055	-8.035015045710402	75.23633497644043	1.313121762472256	0	0	0	0	0	0	32.53641136030029	-32.53641136030026	4.457561085247851	77.89870847999359	85.54243916404729	0	0	32.53641136030029	-32.53641136030026	4.457561085247851	77.89870847999359	85.54243916394562	0	0
15.01999999999977	18.74549924567204	9.2324840315032	30.93071324622708	0	0.9399999999999999	0	46.8650351911097	-30.22498143758949	0.2374225319446593	74.41818770111347	1.29884239875158	0	0	0	47.7268079089775	-5.930209790994633	-8.09072344371352	75.22277988047016	1.312885181417151	0	0	0	0	0	0	32.53759394867456	-32.53759394867453	4.457662550374852	77.90004388272929	85.54233769892545	0	0	32.53759394867456	-32.53759394867453	4.457662550374852	77.90004388272929	85.54233769882379	0	0
15.03999999999977	18.51410824602423	9.11456091855354	30.99733485105012	0	0.9399999999999999	0	47.07331166292779	-30.19340456107634	0.233791615003642	74.41895067085966	1.298855715085744	0	0	0	47.88831551372999	-5.830551403793393	-8.131834943162923	75.17385702474752	1.312031316505313	0	0	0	0	0	0	32.53848039297291	-32.53848039297287	4.457738593348503	77.90104469522574	85.54226165595567	0	0	32.53848039297291	-32.53848039297287	4.457738593348503	77.90104469522574	85.54226165585405	0	0
15.05999999999977	18.25792127360322	9.014457033975217	31.06081735810301	0	0.9399999999999999	0	47.39769339471125	-30.20018365620522	0.367911136468289	74.45027536888654	1.299402434203506	0	0	0	48.15662341028548	-5.785408452762672	-8.145413463248419	75.14832708877121	1.311585735064703	0	0	0	0	0	0	32.53956185952972	-32.53956185952968	4.457831402238214	77.9022661718237	85.54216884707067	0	0	32.53956185952972	-32.53956185952968	4.457831402238214	77.9022661718237	85.54216884696905	0	0
15.07999999999977	17.90721252625594	8.831056838173378	31.10108770797586	0	0.9399999999999999	0	47.83601582879287	-30.13022732148826	0.5182230872095026	74.49153722946629	1.300122589526121	0	0	0	48.49762994131843	-5.720878124749591	-8.187560643803737	75.12254739468987	1.311135794522827	0	0	0	0	0	0	32.540883801374	-32.54088380137397	4.457945044010566	77.90376187506054	85.54205520530407	0	0	32.540883801374	-32.54088380137397	4.457945044010566	77.90376187506054	85.54205520520244	0	0
15.09999999999977	17.49415467268387	8.587479762346522	31.18307065000434	0	0.9399999999999999	0	48.26632891300779	-30.04330531728727	0.5706645939203705	74.49613352018989	1.300202809932627	0	0	0	48.91065992045373	-5.667573018338135	-8.187347847121321	75.08508227310847	1.310481904796571	0	0	0	0	0	0	32.54185103349782	-32.54185103349779	4.458027867638881	77.90485189156226	85.54197238167997	0	0	32.54185103349782	-32.54185103349779	4.458027867638881	77.90485189156226	85.54197238157833	0	0
15.11999999999977	17.07863743706413	8.359493393184426	31.25338086787471	0	0.9399999999999999	0	48.70472597703732	-29.97436688978015	0.6811597044181225	74.50567509103941	1.300369341759763	0	0	0	49.20135639411547	-5.568819032421602	-8.238645729625755	75.03898070907874	1.309677280713933	0	0	0	0	0	0	32.54299839346817	-32.54299839346813	4.458126748892397	77.90615337298857	85.54187350043151	0	0	32.54299839346817	-32.54299839346813	4.458126748892397	77.90615337298857	85.54187350032987	0	0
